<svg xmlns="http://www.w3.org/2000/svg" xmlns:xlink="http://www.w3.org/1999/xlink" width="91" zoomAndPan="magnify" viewBox="0 0 68.25 41.25" height="55" preserveAspectRatio="xMidYMid meet" version="1.0"><defs><clipPath id="e2c55de986"><path d="M 0.242188 0 L 66.476562 0 L 66.476562 39.832031 L 0.242188 39.832031 Z M 0.242188 0 " clip-rule="nonzero"/></clipPath></defs><g clip-path="url(#e2c55de986)"><path fill="#38bdf8" d="M 33.398438 0.03125 C 24.546875 0.03125 19.042969 4.441406 16.820312 13.292969 C 20.136719 8.882812 24.015625 7.226562 28.425781 8.320312 C 30.945312 8.949219 32.769531 10.773438 34.757812 12.796875 C 38.007812 16.113281 41.691406 19.925781 49.980469 19.925781 C 58.835938 19.925781 64.339844 15.515625 66.5625 6.660156 C 63.246094 11.070312 59.363281 12.730469 54.953125 11.636719 C 52.433594 11.003906 50.644531 9.183594 48.621094 7.160156 C 45.371094 3.84375 41.691406 0.03125 33.398438 0.03125 Z M 16.820312 19.925781 C 7.964844 19.925781 2.460938 24.335938 0.238281 33.191406 C 3.554688 28.78125 7.433594 27.121094 11.84375 28.214844 C 14.367188 28.847656 16.15625 30.671875 18.179688 32.691406 C 21.429688 36.007812 25.109375 39.824219 33.398438 39.824219 C 42.253906 39.824219 47.757812 35.414062 49.980469 26.558594 C 46.664062 30.96875 42.785156 32.625 38.375 31.53125 C 35.855469 30.902344 34.0625 29.078125 32.039062 27.054688 C 28.789062 23.738281 25.109375 19.925781 16.820312 19.925781 Z M 16.820312 19.925781 " fill-opacity="1" fill-rule="nonzero"/><path fill="#38bdf8" d="M 33.398438 0.03125 C 24.546875 0.03125 19.042969 4.441406 16.820312 13.292969 C 20.136719 8.882812 24.015625 7.226562 28.425781 8.320312 C 30.945312 8.949219 32.769531 10.773438 34.757812 12.796875 C 38.007812 16.113281 41.691406 19.925781 49.980469 19.925781 C 58.835938 19.925781 64.339844 15.515625 66.5625 6.660156 C 63.246094 11.070312 59.363281 12.730469 54.953125 11.636719 C 52.433594 11.003906 50.644531 9.183594 48.621094 7.160156 C 45.371094 3.84375 41.691406 0.03125 33.398438 0.03125 Z M 16.820312 19.925781 C 7.964844 19.925781 2.460938 24.335938 0.238281 33.191406 C 3.554688 28.78125 7.433594 27.121094 11.84375 28.214844 C 14.367188 28.847656 16.15625 30.671875 18.179688 32.691406 C 21.429688 36.007812 25.109375 39.824219 33.398438 39.824219 C 42.253906 39.824219 47.757812 35.414062 49.980469 26.558594 C 46.664062 30.96875 42.785156 32.625 38.375 31.53125 C 35.855469 30.902344 34.0625 29.078125 32.039062 27.054688 C 28.789062 23.738281 25.109375 19.925781 16.820312 19.925781 Z M 16.820312 19.925781 " fill-opacity="1" fill-rule="nonzero"/></g></svg>